<svg width="423" height="109" viewBox="0 0 423 109" fill="none" xmlns="http://www.w3.org/2000/svg">
<g filter="url(#filter0_i)">
<path fill-rule="evenodd" clip-rule="evenodd" d="M33.7417 19.0222C37.1637 16.4054 42.4476 15.097 49.5935 15.097C55.078 15.097 64.3242 17.0468 71.3671 18.7535C76.215 19.9283 80.9951 16.3008 80.9951 11.3126C80.9951 8.21054 79.0878 5.43212 76.1261 4.50975C70.2618 2.68342 59.9588 0 50.0464 0C44.5108 0 39.3778 0.704524 34.6475 2.11358C29.9172 3.52262 25.7906 5.6362 22.268 8.4543C18.846 11.1718 16.1286 14.5937 14.1156 18.7202C12.1027 22.7461 11.0962 27.3758 11.0962 32.6094C11.0962 36.8366 11.7504 40.4598 13.0588 43.4792C14.4679 46.3979 16.4808 48.9644 19.0976 51.1787C21.7144 53.3929 24.9854 55.3051 28.9106 56.9155C32.9366 58.4252 37.6166 59.8846 42.9508 61.2936C47.5806 62.5014 51.707 63.6589 55.3303 64.7659C58.9536 65.873 62.0232 67.1312 64.5395 68.5402C67.0557 69.8486 68.9678 71.4086 70.2763 73.2202C71.6853 75.0319 72.3899 77.2964 72.3899 80.0138C72.3899 84.5429 70.5782 87.965 66.955 90.2798C63.3317 92.5946 58.1987 93.7521 51.5561 93.7521H12.5305C8.31987 93.7521 4.90649 97.1654 4.90649 101.376C4.90649 105.587 8.31986 109 12.5305 109H51.2541C56.689 109 61.7717 108.446 66.5021 107.339C71.2324 106.132 75.359 104.32 78.8816 101.904C82.5048 99.3882 85.323 96.1676 87.3359 92.2424C89.4494 88.3172 90.5062 83.6371 90.5062 78.2022C90.5062 73.3712 89.6507 69.295 87.9397 65.9737C86.3293 62.5517 84.0145 59.6832 80.9951 57.3684C77.9757 55.0536 74.2518 53.091 69.8234 51.4806C65.4955 49.8702 60.6143 48.4109 55.1793 47.1025C50.751 45.9954 46.876 44.9889 43.5547 44.0831C40.2334 43.0766 37.4656 41.9695 35.2514 40.7618C33.0371 39.4533 31.3764 37.9941 30.2694 36.3837C29.2629 34.6727 28.7597 32.5087 28.7597 29.892C28.7597 25.2622 30.4203 21.6389 33.7417 19.0222ZM6.79356 101.452C6.79356 104.365 9.1639 106.736 12.0775 106.736C14.9911 106.736 17.3614 104.365 17.3614 101.452C17.3614 98.538 14.9911 96.1676 12.0775 96.1676C9.16396 96.1676 6.79356 98.5379 6.79356 101.452Z" fill="url(#paint0_linear)"/>
<path d="M12.4413 56.1164C5.58112 56.1164 0 61.6975 0 68.5576C0 77.0712 11.1337 89.5696 11.6077 90.0975C12.053 90.5934 12.8304 90.5926 13.2748 90.0975C13.7488 89.5696 24.8825 77.0712 24.8825 68.5576C24.8824 61.6975 19.3014 56.1164 12.4413 56.1164ZM12.4413 74.8171C8.98976 74.8171 6.18182 72.0091 6.18182 68.5576C6.18182 65.1061 8.98983 62.2981 12.4413 62.2981C15.8927 62.2981 18.7007 65.1062 18.7007 68.5577C18.7007 72.0092 15.8927 74.8171 12.4413 74.8171Z" fill="#764BA2"/>
</g>
<path d="M153.568 71H148.288V56.936C148.288 54.6 147.904 52.888 147.136 51.8C146.368 50.712 145.248 50.168 143.776 50.168C142.272 50.168 140.896 50.728 139.648 51.848C138.432 52.936 137.552 54.36 137.008 56.12V71H131.728V56.936C131.728 54.568 131.344 52.856 130.576 51.8C129.808 50.712 128.704 50.168 127.264 50.168C125.76 50.168 124.384 50.712 123.136 51.8C121.888 52.888 120.992 54.312 120.448 56.072V71H115.168V45.896H119.968V50.936C120.96 49.176 122.256 47.832 123.856 46.904C125.488 45.944 127.344 45.464 129.424 45.464C131.504 45.464 133.136 46.008 134.32 47.096C135.536 48.184 136.288 49.544 136.576 51.176C137.632 49.32 138.96 47.912 140.56 46.952C142.16 45.96 143.984 45.464 146.032 45.464C147.504 45.464 148.72 45.752 149.68 46.328C150.672 46.872 151.456 47.608 152.032 48.536C152.608 49.464 153.008 50.552 153.232 51.8C153.456 53.016 153.568 54.312 153.568 55.688V71ZM159.954 76.904C160.434 77 160.898 77.08 161.346 77.144C161.826 77.208 162.21 77.24 162.498 77.24C162.914 77.24 163.266 77.144 163.554 76.952C163.874 76.792 164.194 76.488 164.514 76.04C164.834 75.592 165.154 74.952 165.474 74.12C165.826 73.32 166.226 72.28 166.674 71L156.354 45.896H161.778L169.554 66.344L176.466 45.896H181.458L170.082 76.808C169.57 78.248 168.674 79.448 167.394 80.408C166.146 81.4 164.53 81.896 162.546 81.896C162.162 81.896 161.762 81.864 161.346 81.8C160.93 81.768 160.466 81.672 159.954 81.512V76.904ZM193.897 71.48C191.881 71.48 189.865 71.16 187.849 70.52C185.865 69.848 184.153 68.904 182.713 67.688L184.825 64.328C186.329 65.416 187.817 66.248 189.289 66.824C190.761 67.368 192.265 67.64 193.801 67.64C195.369 67.64 196.601 67.336 197.497 66.728C198.425 66.12 198.889 65.256 198.889 64.136C198.889 63.08 198.377 62.312 197.353 61.832C196.329 61.352 194.729 60.824 192.553 60.248C190.985 59.832 189.641 59.432 188.521 59.048C187.401 58.664 186.489 58.216 185.785 57.704C185.081 57.192 184.569 56.6 184.249 55.928C183.929 55.256 183.769 54.44 183.769 53.48C183.769 52.2 184.009 51.064 184.489 50.072C185.001 49.08 185.689 48.248 186.553 47.576C187.449 46.872 188.489 46.344 189.673 45.992C190.857 45.64 192.137 45.464 193.513 45.464C195.401 45.464 197.161 45.752 198.793 46.328C200.425 46.904 201.881 47.736 203.161 48.824L200.905 51.992C198.569 50.136 196.089 49.208 193.465 49.208C192.121 49.208 190.985 49.496 190.057 50.072C189.161 50.616 188.713 51.496 188.713 52.712C188.713 53.224 188.809 53.656 189.001 54.008C189.193 54.36 189.497 54.664 189.913 54.92C190.361 55.176 190.921 55.416 191.593 55.64C192.297 55.832 193.161 56.056 194.185 56.312C195.881 56.728 197.337 57.144 198.553 57.56C199.801 57.976 200.825 58.472 201.625 59.048C202.425 59.592 203.017 60.248 203.401 61.016C203.785 61.752 203.977 62.648 203.977 63.704C203.977 66.104 203.065 68.008 201.241 69.416C199.449 70.792 197.001 71.48 193.897 71.48ZM222.846 71.48C220.83 71.48 219.054 71 217.518 70.04C215.982 69.08 214.766 67.832 213.87 66.296V81.224H208.59V45.896H213.246V50.408C214.206 48.904 215.438 47.704 216.942 46.808C218.478 45.912 220.206 45.464 222.126 45.464C223.854 45.464 225.438 45.816 226.878 46.52C228.318 47.224 229.566 48.168 230.622 49.352C231.678 50.536 232.494 51.912 233.07 53.48C233.678 55.048 233.982 56.696 233.982 58.424C233.982 60.248 233.71 61.96 233.166 63.56C232.622 65.128 231.854 66.504 230.862 67.688C229.87 68.84 228.686 69.768 227.31 70.472C225.966 71.144 224.478 71.48 222.846 71.48ZM221.118 66.968C222.238 66.968 223.246 66.728 224.142 66.248C225.07 65.768 225.854 65.128 226.494 64.328C227.166 63.528 227.678 62.616 228.03 61.592C228.382 60.568 228.558 59.512 228.558 58.424C228.558 57.272 228.35 56.184 227.934 55.16C227.55 54.136 227.006 53.24 226.302 52.472C225.63 51.704 224.814 51.096 223.854 50.648C222.894 50.2 221.854 49.976 220.734 49.976C220.062 49.976 219.358 50.104 218.622 50.36C217.886 50.616 217.198 50.968 216.558 51.416C215.918 51.864 215.358 52.392 214.878 53C214.398 53.576 214.062 54.216 213.87 54.92V61.496C214.19 62.264 214.606 62.984 215.118 63.656C215.63 64.328 216.19 64.904 216.798 65.384C217.438 65.864 218.126 66.248 218.862 66.536C219.598 66.824 220.35 66.968 221.118 66.968ZM250.011 71.48C248.027 71.48 246.235 71.128 244.635 70.424C243.067 69.72 241.723 68.776 240.603 67.592C239.483 66.408 238.619 65.032 238.011 63.464C237.403 61.864 237.099 60.2 237.099 58.472C237.099 56.744 237.403 55.096 238.011 53.528C238.619 51.928 239.483 50.536 240.603 49.352C241.755 48.168 243.115 47.224 244.683 46.52C246.283 45.816 248.059 45.464 250.011 45.464C251.963 45.464 253.723 45.816 255.291 46.52C256.891 47.224 258.251 48.168 259.371 49.352C260.523 50.536 261.403 51.928 262.01 53.528C262.619 55.096 262.923 56.744 262.923 58.472C262.923 60.2 262.619 61.864 262.01 63.464C261.403 65.032 260.523 66.408 259.371 67.592C258.251 68.776 256.891 69.72 255.291 70.424C253.723 71.128 251.963 71.48 250.011 71.48ZM242.523 58.52C242.523 59.736 242.715 60.856 243.099 61.88C243.483 62.904 244.011 63.8 244.683 64.568C245.355 65.304 246.139 65.896 247.035 66.344C247.963 66.76 248.955 66.968 250.011 66.968C251.067 66.968 252.043 66.76 252.939 66.344C253.867 65.896 254.667 65.288 255.339 64.52C256.011 63.752 256.539 62.856 256.923 61.832C257.307 60.808 257.499 59.688 257.499 58.472C257.499 57.288 257.307 56.184 256.923 55.16C256.539 54.104 256.011 53.192 255.339 52.424C254.667 51.656 253.867 51.064 252.939 50.648C252.043 50.2 251.067 49.976 250.011 49.976C248.987 49.976 248.011 50.2 247.083 50.648C246.187 51.096 245.403 51.704 244.731 52.472C244.059 53.24 243.515 54.152 243.099 55.208C242.715 56.232 242.523 57.336 242.523 58.52ZM281.245 69.704C280.573 70.024 279.645 70.392 278.461 70.808C277.277 71.192 276.013 71.384 274.669 71.384C273.837 71.384 273.053 71.272 272.317 71.048C271.581 70.824 270.925 70.488 270.349 70.04C269.805 69.592 269.373 69.016 269.053 68.312C268.733 67.576 268.573 66.696 268.573 65.672V49.976H265.261V45.896H268.573V37.64H273.853V45.896H279.325V49.976H273.853V63.992C273.917 64.888 274.189 65.544 274.669 65.96C275.181 66.344 275.805 66.536 276.541 66.536C277.277 66.536 277.981 66.408 278.653 66.152C279.325 65.896 279.821 65.688 280.141 65.528L281.245 69.704ZM284.662 71V64.856H289.03V71H284.662ZM304.145 71.48C302.129 71.48 300.145 71.176 298.193 70.568C296.241 69.928 294.561 69.016 293.153 67.832L294.977 65C296.449 66.12 297.921 66.968 299.393 67.544C300.865 68.088 302.417 68.36 304.049 68.36C305.873 68.36 307.313 68.008 308.369 67.304C309.457 66.568 310.001 65.544 310.001 64.232C310.001 63.624 309.857 63.112 309.569 62.696C309.281 62.248 308.849 61.864 308.273 61.544C307.697 61.224 306.961 60.936 306.065 60.68C305.169 60.424 304.129 60.152 302.945 59.864C301.441 59.48 300.145 59.112 299.057 58.76C297.969 58.408 297.073 57.992 296.369 57.512C295.665 57.032 295.153 56.456 294.833 55.784C294.513 55.112 294.353 54.28 294.353 53.288C294.353 52.04 294.593 50.936 295.073 49.976C295.585 48.984 296.273 48.168 297.137 47.528C298.001 46.856 299.009 46.36 300.161 46.04C301.345 45.688 302.609 45.512 303.953 45.512C305.841 45.512 307.601 45.816 309.233 46.424C310.865 47.032 312.241 47.832 313.361 48.824L311.441 51.368C310.385 50.44 309.201 49.752 307.889 49.304C306.577 48.824 305.233 48.584 303.857 48.584C302.321 48.584 301.009 48.92 299.921 49.592C298.865 50.232 298.337 51.272 298.337 52.712C298.337 53.288 298.433 53.768 298.625 54.152C298.849 54.536 299.201 54.872 299.681 55.16C300.161 55.448 300.769 55.704 301.505 55.928C302.273 56.152 303.185 56.392 304.241 56.648C305.905 57.032 307.345 57.432 308.561 57.848C309.809 58.232 310.833 58.696 311.633 59.24C312.465 59.784 313.073 60.424 313.457 61.16C313.873 61.896 314.081 62.792 314.081 63.848C314.081 66.184 313.185 68.04 311.393 69.416C309.601 70.792 307.185 71.48 304.145 71.48ZM330.024 71.48C328.136 71.48 326.408 71.128 324.84 70.424C323.304 69.72 321.976 68.776 320.856 67.592C319.768 66.408 318.92 65.032 318.312 63.464C317.704 61.896 317.4 60.248 317.4 58.52C317.4 56.76 317.704 55.096 318.312 53.528C318.952 51.96 319.816 50.584 320.904 49.4C322.024 48.216 323.352 47.272 324.888 46.568C326.456 45.864 328.168 45.512 330.024 45.512C331.88 45.512 333.592 45.864 335.16 46.568C336.728 47.272 338.056 48.216 339.144 49.4C340.264 50.584 341.128 51.96 341.736 53.528C342.376 55.096 342.696 56.76 342.696 58.52C342.696 60.248 342.392 61.896 341.784 63.464C341.176 65.032 340.312 66.408 339.192 67.592C338.072 68.776 336.728 69.72 335.16 70.424C333.624 71.128 331.912 71.48 330.024 71.48ZM321.72 58.568C321.72 59.88 321.928 61.096 322.344 62.216C322.792 63.336 323.384 64.312 324.12 65.144C324.888 65.976 325.768 66.632 326.76 67.112C327.784 67.592 328.872 67.832 330.024 67.832C331.176 67.832 332.248 67.592 333.24 67.112C334.264 66.632 335.16 65.976 335.928 65.144C336.696 64.28 337.288 63.288 337.704 62.168C338.152 61.016 338.376 59.784 338.376 58.472C338.376 57.192 338.152 55.992 337.704 54.872C337.288 53.72 336.696 52.728 335.928 51.896C335.16 51.032 334.264 50.36 333.24 49.88C332.248 49.4 331.176 49.16 330.024 49.16C328.872 49.16 327.784 49.416 326.76 49.928C325.768 50.408 324.888 51.08 324.12 51.944C323.384 52.776 322.792 53.768 322.344 54.92C321.928 56.04 321.72 57.256 321.72 58.568ZM346.134 58.424C346.134 56.664 346.438 55 347.046 53.432C347.654 51.864 348.518 50.504 349.638 49.352C350.758 48.168 352.086 47.24 353.622 46.568C355.19 45.864 356.934 45.512 358.854 45.512C361.35 45.512 363.494 46.072 365.286 47.192C367.11 48.28 368.486 49.752 369.414 51.608L365.286 52.904C364.646 51.72 363.75 50.808 362.598 50.168C361.446 49.496 360.166 49.16 358.758 49.16C357.606 49.16 356.518 49.4 355.494 49.88C354.47 50.328 353.59 50.968 352.854 51.8C352.118 52.632 351.526 53.608 351.078 54.728C350.662 55.848 350.454 57.08 350.454 58.424C350.454 59.736 350.678 60.968 351.126 62.12C351.574 63.272 352.166 64.28 352.902 65.144C353.67 65.976 354.55 66.632 355.542 67.112C356.566 67.592 357.654 67.832 358.806 67.832C359.542 67.832 360.262 67.736 360.966 67.544C361.702 67.32 362.358 67.032 362.934 66.68C363.542 66.328 364.07 65.928 364.518 65.48C364.966 65 365.286 64.488 365.478 63.944L369.606 65.192C369.222 66.12 368.678 66.968 367.974 67.736C367.302 68.504 366.502 69.16 365.574 69.704C364.646 70.248 363.606 70.68 362.454 71C361.334 71.32 360.15 71.48 358.902 71.48C357.014 71.48 355.286 71.128 353.718 70.424C352.15 69.72 350.806 68.776 349.686 67.592C348.566 66.408 347.686 65.032 347.046 63.464C346.438 61.864 346.134 60.184 346.134 58.424ZM374.392 71V45.944H378.616V71H374.392ZM374.392 41.24V35.96H378.616V41.24H374.392ZM391.887 71.48C390.703 71.48 389.599 71.288 388.575 70.904C387.551 70.488 386.655 69.928 385.887 69.224C385.151 68.52 384.559 67.704 384.111 66.776C383.695 65.816 383.487 64.776 383.487 63.656C383.487 62.504 383.743 61.464 384.255 60.536C384.767 59.576 385.487 58.76 386.415 58.088C387.375 57.416 388.495 56.888 389.775 56.504C391.087 56.12 392.511 55.928 394.047 55.928C395.263 55.928 396.495 56.04 397.743 56.264C398.991 56.488 400.095 56.792 401.055 57.176V55.16C401.055 53.112 400.479 51.512 399.327 50.36C398.175 49.176 396.543 48.584 394.431 48.584C391.903 48.584 389.247 49.56 386.463 51.512L385.071 48.776C388.303 46.6 391.551 45.512 394.815 45.512C398.111 45.512 400.671 46.392 402.495 48.152C404.351 49.912 405.279 52.392 405.279 55.592V65.816C405.279 66.808 405.727 67.32 406.623 67.352V71C406.175 71.064 405.807 71.112 405.519 71.144C405.231 71.176 404.927 71.192 404.607 71.192C403.775 71.192 403.103 70.952 402.591 70.472C402.111 69.96 401.823 69.352 401.727 68.648L401.631 66.872C400.511 68.376 399.087 69.528 397.359 70.328C395.663 71.096 393.839 71.48 391.887 71.48ZM392.991 68.312C394.495 68.312 395.887 68.04 397.167 67.496C398.479 66.92 399.471 66.168 400.143 65.24C400.751 64.632 401.055 64.008 401.055 63.368V59.672C399.007 58.872 396.879 58.472 394.671 58.472C392.559 58.472 390.831 58.92 389.487 59.816C388.175 60.712 387.519 61.88 387.519 63.32C387.519 64.024 387.647 64.68 387.903 65.288C388.191 65.896 388.575 66.424 389.055 66.872C389.567 67.32 390.159 67.672 390.831 67.928C391.503 68.184 392.223 68.312 392.991 68.312ZM412.129 35.96H416.353V64.52C416.353 65.448 416.593 66.184 417.073 66.728C417.585 67.24 418.289 67.496 419.185 67.496C419.537 67.496 419.953 67.448 420.433 67.352C420.913 67.224 421.361 67.08 421.777 66.92L422.449 70.328C421.745 70.616 420.913 70.856 419.953 71.048C418.993 71.24 418.145 71.336 417.409 71.336C415.777 71.336 414.481 70.872 413.521 69.944C412.593 69.016 412.129 67.72 412.129 66.056V35.96Z" fill="black"/>
<defs>
<filter id="filter0_i" x="0" y="0" width="90.5062" height="113" filterUnits="userSpaceOnUse" color-interpolation-filters="sRGB">
<feFlood flood-opacity="0" result="BackgroundImageFix"/>
<feBlend mode="normal" in="SourceGraphic" in2="BackgroundImageFix" result="shape"/>
<feColorMatrix in="SourceAlpha" type="matrix" values="0 0 0 0 0 0 0 0 0 0 0 0 0 0 0 0 0 0 127 0" result="hardAlpha"/>
<feOffset dy="4"/>
<feGaussianBlur stdDeviation="2"/>
<feComposite in2="hardAlpha" operator="arithmetic" k2="-1" k3="1"/>
<feColorMatrix type="matrix" values="0 0 0 0 0 0 0 0 0 0 0 0 0 0 0 0 0 0 0.15 0"/>
<feBlend mode="normal" in2="shape" result="effect1_innerShadow"/>
</filter>
<linearGradient id="paint0_linear" x1="41.9695" y1="1.70803e-10" x2="41.9695" y2="109" gradientUnits="userSpaceOnUse">
<stop stop-color="#667EEA"/>
<stop offset="1" stop-color="#764BA2"/>
</linearGradient>
</defs>
</svg>
