<svg width="215" height="58" viewBox="0 0 215 58" fill="none" xmlns="http://www.w3.org/2000/svg">
<path fill-rule="evenodd" clip-rule="evenodd" d="M17.9543 10.1219C19.7752 8.72948 22.5868 8.03324 26.3892 8.03324C29.3076 8.03324 34.2276 9.07076 37.9752 9.97892C40.5548 10.604 43.0983 8.6738 43.0983 6.01952C43.0983 4.36891 42.0834 2.89049 40.5075 2.39968C37.387 1.42788 31.9047 0 26.6302 0C23.6846 0 20.9533 0.374884 18.4363 1.12466C15.9192 1.87442 13.7234 2.99908 11.849 4.49862C10.0282 5.9446 8.58217 7.76546 7.51108 9.96122C6.43998 12.1034 5.90443 14.5669 5.90443 17.3518C5.90443 19.6011 6.25253 21.5291 6.94875 23.1357C7.69852 24.6888 8.76962 26.0545 10.162 27.2327C11.5545 28.4109 13.295 29.4284 15.3837 30.2853C17.5259 31.0886 20.0162 31.8652 22.8546 32.615C25.3181 33.2576 27.5138 33.8735 29.4418 34.4626C31.3698 35.0517 33.0032 35.7212 34.3421 36.4709C35.681 37.1672 36.6985 37.9972 37.3947 38.9612C38.1445 39.9252 38.5194 41.1302 38.5194 42.5762C38.5194 44.9861 37.5554 46.807 35.6274 48.0388C33.6994 49.2705 30.9681 49.8864 27.4335 49.8864H6.66759C4.42709 49.8864 2.6108 51.7027 2.6108 53.9432C2.6108 56.1837 4.42709 58 6.66759 58H27.2729C30.1648 58 32.8694 57.7054 35.3864 57.1163C37.9035 56.4737 40.0993 55.5097 41.9737 54.2244C43.9017 52.8855 45.4012 51.1717 46.4723 49.0831C47.597 46.9945 48.1593 44.5042 48.1593 41.6122C48.1593 39.0416 47.704 36.8726 46.7936 35.1053C45.9367 33.2844 44.705 31.7581 43.0983 30.5263C41.4917 29.2946 39.5101 28.2503 37.1537 27.3934C34.8508 26.5364 32.2535 25.76 29.3615 25.0637C27.0051 24.4746 24.9432 23.9391 23.1759 23.4571C21.4086 22.9215 19.9359 22.3324 18.7576 21.6898C17.5794 20.9935 16.6957 20.217 16.1066 19.3601C15.5711 18.4497 15.3033 17.2982 15.3033 15.9058C15.3033 13.4423 16.187 11.5143 17.9543 10.1219ZM3.61495 53.9834C3.61495 55.5338 4.87623 56.7951 6.4266 56.7951C7.97694 56.7951 9.23822 55.5338 9.23822 53.9834C9.23822 52.4331 7.97694 51.1717 6.4266 51.1717C4.87626 51.1717 3.61495 52.433 3.61495 53.9834Z" fill="white"/>
<path d="M6.62013 29.8601C2.96977 29.8601 0 32.8299 0 36.4802C0 41.0104 5.92437 47.6609 6.1766 47.9418C6.41352 48.2057 6.82716 48.2052 7.06365 47.9418C7.31589 47.6609 13.2403 41.0104 13.2403 36.4802C13.2402 32.8299 10.2704 29.8601 6.62013 29.8601ZM6.62013 39.811C4.78354 39.811 3.28941 38.3168 3.28941 36.4802C3.28941 34.6436 4.78358 33.1495 6.62013 33.1495C8.45668 33.1495 9.95081 34.6436 9.95081 36.4802C9.95081 38.3168 8.45668 39.811 6.62013 39.811Z" fill="white"/>
<path d="M79.784 37H77.144V29.968C77.144 28.8 76.952 27.944 76.568 27.4C76.184 26.856 75.624 26.584 74.888 26.584C74.136 26.584 73.448 26.864 72.824 27.424C72.216 27.968 71.776 28.68 71.504 29.56V37H68.864V29.968C68.864 28.784 68.672 27.928 68.288 27.4C67.904 26.856 67.352 26.584 66.632 26.584C65.88 26.584 65.192 26.856 64.568 27.4C63.944 27.944 63.496 28.656 63.224 29.536V37H60.584V24.448H62.984V26.968C63.48 26.088 64.128 25.416 64.928 24.952C65.744 24.472 66.672 24.232 67.712 24.232C68.752 24.232 69.568 24.504 70.16 25.048C70.768 25.592 71.144 26.272 71.288 27.088C71.816 26.16 72.48 25.456 73.28 24.976C74.08 24.48 74.992 24.232 76.016 24.232C76.752 24.232 77.36 24.376 77.84 24.664C78.336 24.936 78.728 25.304 79.016 25.768C79.304 26.232 79.504 26.776 79.616 27.4C79.728 28.008 79.784 28.656 79.784 29.344V37ZM82.9769 39.952C83.2169 40 83.4489 40.04 83.6729 40.072C83.9129 40.104 84.1049 40.12 84.2489 40.12C84.4569 40.12 84.6329 40.072 84.7769 39.976C84.9369 39.896 85.0969 39.744 85.2569 39.52C85.4169 39.296 85.5769 38.976 85.7369 38.56C85.9129 38.16 86.1129 37.64 86.3369 37L81.1769 24.448H83.8889L87.7769 34.672L91.2329 24.448H93.7289L88.0409 39.904C87.7849 40.624 87.3369 41.224 86.6969 41.704C86.0729 42.2 85.2649 42.448 84.2729 42.448C84.0809 42.448 83.8809 42.432 83.6729 42.4C83.4649 42.384 83.2329 42.336 82.9769 42.256V39.952ZM99.9487 37.24C98.9407 37.24 97.9327 37.08 96.9247 36.76C95.9327 36.424 95.0767 35.952 94.3567 35.344L95.4127 33.664C96.1647 34.208 96.9087 34.624 97.6447 34.912C98.3807 35.184 99.1327 35.32 99.9007 35.32C100.685 35.32 101.301 35.168 101.749 34.864C102.213 34.56 102.445 34.128 102.445 33.568C102.445 33.04 102.189 32.656 101.677 32.416C101.165 32.176 100.365 31.912 99.2767 31.624C98.4927 31.416 97.8207 31.216 97.2607 31.024C96.7007 30.832 96.2447 30.608 95.8927 30.352C95.5407 30.096 95.2847 29.8 95.1247 29.464C94.9647 29.128 94.8847 28.72 94.8847 28.24C94.8847 27.6 95.0047 27.032 95.2447 26.536C95.5007 26.04 95.8447 25.624 96.2767 25.288C96.7247 24.936 97.2447 24.672 97.8367 24.496C98.4287 24.32 99.0687 24.232 99.7567 24.232C100.701 24.232 101.581 24.376 102.397 24.664C103.213 24.952 103.941 25.368 104.581 25.912L103.453 27.496C102.285 26.568 101.045 26.104 99.7327 26.104C99.0607 26.104 98.4927 26.248 98.0287 26.536C97.5807 26.808 97.3567 27.248 97.3567 27.856C97.3567 28.112 97.4047 28.328 97.5007 28.504C97.5967 28.68 97.7487 28.832 97.9567 28.96C98.1807 29.088 98.4607 29.208 98.7967 29.32C99.1487 29.416 99.5807 29.528 100.093 29.656C100.941 29.864 101.669 30.072 102.277 30.28C102.901 30.488 103.413 30.736 103.813 31.024C104.213 31.296 104.509 31.624 104.701 32.008C104.893 32.376 104.989 32.824 104.989 33.352C104.989 34.552 104.533 35.504 103.621 36.208C102.725 36.896 101.501 37.24 99.9487 37.24ZM114.423 37.24C113.415 37.24 112.527 37 111.759 36.52C110.991 36.04 110.383 35.416 109.935 34.648V42.112H107.295V24.448H109.623V26.704C110.103 25.952 110.719 25.352 111.471 24.904C112.239 24.456 113.103 24.232 114.063 24.232C114.927 24.232 115.719 24.408 116.439 24.76C117.159 25.112 117.783 25.584 118.311 26.176C118.839 26.768 119.247 27.456 119.535 28.24C119.839 29.024 119.991 29.848 119.991 30.712C119.991 31.624 119.855 32.48 119.583 33.28C119.311 34.064 118.927 34.752 118.431 35.344C117.935 35.92 117.343 36.384 116.655 36.736C115.983 37.072 115.239 37.24 114.423 37.24ZM113.559 34.984C114.119 34.984 114.623 34.864 115.071 34.624C115.535 34.384 115.927 34.064 116.247 33.664C116.583 33.264 116.839 32.808 117.015 32.296C117.191 31.784 117.279 31.256 117.279 30.712C117.279 30.136 117.175 29.592 116.967 29.08C116.775 28.568 116.503 28.12 116.151 27.736C115.815 27.352 115.407 27.048 114.927 26.824C114.447 26.6 113.927 26.488 113.367 26.488C113.031 26.488 112.679 26.552 112.311 26.68C111.943 26.808 111.599 26.984 111.279 27.208C110.959 27.432 110.679 27.696 110.439 28C110.199 28.288 110.031 28.608 109.935 28.96V32.248C110.095 32.632 110.303 32.992 110.559 33.328C110.815 33.664 111.095 33.952 111.399 34.192C111.719 34.432 112.063 34.624 112.431 34.768C112.799 34.912 113.175 34.984 113.559 34.984ZM128.005 37.24C127.013 37.24 126.117 37.064 125.317 36.712C124.533 36.36 123.861 35.888 123.301 35.296C122.741 34.704 122.309 34.016 122.005 33.232C121.701 32.432 121.549 31.6 121.549 30.736C121.549 29.872 121.701 29.048 122.005 28.264C122.309 27.464 122.741 26.768 123.301 26.176C123.877 25.584 124.557 25.112 125.341 24.76C126.141 24.408 127.029 24.232 128.005 24.232C128.981 24.232 129.861 24.408 130.645 24.76C131.445 25.112 132.125 25.584 132.685 26.176C133.261 26.768 133.701 27.464 134.005 28.264C134.309 29.048 134.461 29.872 134.461 30.736C134.461 31.6 134.309 32.432 134.005 33.232C133.701 34.016 133.261 34.704 132.685 35.296C132.125 35.888 131.445 36.36 130.645 36.712C129.861 37.064 128.981 37.24 128.005 37.24ZM124.261 30.76C124.261 31.368 124.357 31.928 124.549 32.44C124.741 32.952 125.005 33.4 125.341 33.784C125.677 34.152 126.069 34.448 126.517 34.672C126.981 34.88 127.477 34.984 128.005 34.984C128.533 34.984 129.021 34.88 129.469 34.672C129.933 34.448 130.333 34.144 130.669 33.76C131.005 33.376 131.269 32.928 131.461 32.416C131.653 31.904 131.749 31.344 131.749 30.736C131.749 30.144 131.653 29.592 131.461 29.08C131.269 28.552 131.005 28.096 130.669 27.712C130.333 27.328 129.933 27.032 129.469 26.824C129.021 26.6 128.533 26.488 128.005 26.488C127.493 26.488 127.005 26.6 126.541 26.824C126.093 27.048 125.701 27.352 125.365 27.736C125.029 28.12 124.757 28.576 124.549 29.104C124.357 29.616 124.261 30.168 124.261 30.76ZM143.623 36.352C143.287 36.512 142.823 36.696 142.231 36.904C141.639 37.096 141.007 37.192 140.335 37.192C139.919 37.192 139.527 37.136 139.159 37.024C138.791 36.912 138.463 36.744 138.175 36.52C137.903 36.296 137.687 36.008 137.527 35.656C137.367 35.288 137.287 34.848 137.287 34.336V26.488H135.631V24.448H137.287V20.32H139.927V24.448H142.663V26.488H139.927V33.496C139.959 33.944 140.095 34.272 140.335 34.48C140.591 34.672 140.903 34.768 141.271 34.768C141.639 34.768 141.991 34.704 142.327 34.576C142.663 34.448 142.911 34.344 143.071 34.264L143.623 36.352ZM145.331 37V33.928H147.515V37H145.331ZM155.073 37.24C154.065 37.24 153.073 37.088 152.097 36.784C151.121 36.464 150.281 36.008 149.577 35.416L150.489 34C151.225 34.56 151.961 34.984 152.697 35.272C153.433 35.544 154.209 35.68 155.025 35.68C155.937 35.68 156.657 35.504 157.185 35.152C157.729 34.784 158.001 34.272 158.001 33.616C158.001 33.312 157.929 33.056 157.785 32.848C157.641 32.624 157.425 32.432 157.137 32.272C156.849 32.112 156.481 31.968 156.033 31.84C155.585 31.712 155.065 31.576 154.473 31.432C153.721 31.24 153.073 31.056 152.529 30.88C151.985 30.704 151.537 30.496 151.185 30.256C150.833 30.016 150.577 29.728 150.417 29.392C150.257 29.056 150.177 28.64 150.177 28.144C150.177 27.52 150.297 26.968 150.537 26.488C150.793 25.992 151.137 25.584 151.569 25.264C152.001 24.928 152.505 24.68 153.081 24.52C153.673 24.344 154.305 24.256 154.977 24.256C155.921 24.256 156.801 24.408 157.617 24.712C158.433 25.016 159.121 25.416 159.681 25.912L158.721 27.184C158.193 26.72 157.601 26.376 156.945 26.152C156.289 25.912 155.617 25.792 154.929 25.792C154.161 25.792 153.505 25.96 152.961 26.296C152.433 26.616 152.169 27.136 152.169 27.856C152.169 28.144 152.217 28.384 152.313 28.576C152.425 28.768 152.601 28.936 152.841 29.08C153.081 29.224 153.385 29.352 153.753 29.464C154.137 29.576 154.593 29.696 155.121 29.824C155.953 30.016 156.673 30.216 157.281 30.424C157.905 30.616 158.417 30.848 158.817 31.12C159.233 31.392 159.537 31.712 159.729 32.08C159.937 32.448 160.041 32.896 160.041 33.424C160.041 34.592 159.593 35.52 158.697 36.208C157.801 36.896 156.593 37.24 155.073 37.24ZM168.012 37.24C167.068 37.24 166.204 37.064 165.42 36.712C164.652 36.36 163.988 35.888 163.428 35.296C162.884 34.704 162.46 34.016 162.156 33.232C161.852 32.448 161.7 31.624 161.7 30.76C161.7 29.88 161.852 29.048 162.156 28.264C162.476 27.48 162.908 26.792 163.452 26.2C164.012 25.608 164.676 25.136 165.444 24.784C166.228 24.432 167.084 24.256 168.012 24.256C168.94 24.256 169.796 24.432 170.58 24.784C171.364 25.136 172.028 25.608 172.572 26.2C173.132 26.792 173.564 27.48 173.868 28.264C174.188 29.048 174.348 29.88 174.348 30.76C174.348 31.624 174.196 32.448 173.892 33.232C173.588 34.016 173.156 34.704 172.596 35.296C172.036 35.888 171.364 36.36 170.58 36.712C169.812 37.064 168.956 37.24 168.012 37.24ZM163.86 30.784C163.86 31.44 163.964 32.048 164.172 32.608C164.396 33.168 164.692 33.656 165.06 34.072C165.444 34.488 165.884 34.816 166.38 35.056C166.892 35.296 167.436 35.416 168.012 35.416C168.588 35.416 169.124 35.296 169.62 35.056C170.132 34.816 170.58 34.488 170.964 34.072C171.348 33.64 171.644 33.144 171.852 32.584C172.076 32.008 172.188 31.392 172.188 30.736C172.188 30.096 172.076 29.496 171.852 28.936C171.644 28.36 171.348 27.864 170.964 27.448C170.58 27.016 170.132 26.68 169.62 26.44C169.124 26.2 168.588 26.08 168.012 26.08C167.436 26.08 166.892 26.208 166.38 26.464C165.884 26.704 165.444 27.04 165.06 27.472C164.692 27.888 164.396 28.384 164.172 28.96C163.964 29.52 163.86 30.128 163.86 30.784ZM176.067 30.712C176.067 29.832 176.219 29 176.523 28.216C176.827 27.432 177.259 26.752 177.819 26.176C178.379 25.584 179.043 25.12 179.811 24.784C180.595 24.432 181.467 24.256 182.427 24.256C183.675 24.256 184.747 24.536 185.643 25.096C186.555 25.64 187.243 26.376 187.707 27.304L185.643 27.952C185.323 27.36 184.875 26.904 184.299 26.584C183.723 26.248 183.083 26.08 182.379 26.08C181.803 26.08 181.259 26.2 180.747 26.44C180.235 26.664 179.795 26.984 179.427 27.4C179.059 27.816 178.763 28.304 178.539 28.864C178.331 29.424 178.227 30.04 178.227 30.712C178.227 31.368 178.339 31.984 178.563 32.56C178.787 33.136 179.083 33.64 179.451 34.072C179.835 34.488 180.275 34.816 180.771 35.056C181.283 35.296 181.827 35.416 182.403 35.416C182.771 35.416 183.131 35.368 183.483 35.272C183.851 35.16 184.179 35.016 184.467 34.84C184.771 34.664 185.035 34.464 185.259 34.24C185.483 34 185.643 33.744 185.739 33.472L187.803 34.096C187.611 34.56 187.339 34.984 186.987 35.368C186.651 35.752 186.251 36.08 185.787 36.352C185.323 36.624 184.803 36.84 184.227 37C183.667 37.16 183.075 37.24 182.451 37.24C181.507 37.24 180.643 37.064 179.859 36.712C179.075 36.36 178.403 35.888 177.843 35.296C177.283 34.704 176.843 34.016 176.523 33.232C176.219 32.432 176.067 31.592 176.067 30.712ZM190.196 37V24.472H192.308V37H190.196ZM190.196 22.12V19.48H192.308V22.12H190.196ZM198.943 37.24C198.351 37.24 197.799 37.144 197.287 36.952C196.775 36.744 196.327 36.464 195.943 36.112C195.575 35.76 195.279 35.352 195.055 34.888C194.847 34.408 194.743 33.888 194.743 33.328C194.743 32.752 194.871 32.232 195.127 31.768C195.383 31.288 195.743 30.88 196.207 30.544C196.687 30.208 197.247 29.944 197.887 29.752C198.543 29.56 199.255 29.464 200.023 29.464C200.631 29.464 201.247 29.52 201.871 29.632C202.495 29.744 203.047 29.896 203.527 30.088V29.08C203.527 28.056 203.239 27.256 202.663 26.68C202.087 26.088 201.271 25.792 200.215 25.792C198.951 25.792 197.623 26.28 196.231 27.256L195.535 25.888C197.151 24.8 198.775 24.256 200.407 24.256C202.055 24.256 203.335 24.696 204.247 25.576C205.175 26.456 205.639 27.696 205.639 29.296V34.408C205.639 34.904 205.863 35.16 206.311 35.176V37C206.087 37.032 205.903 37.056 205.759 37.072C205.615 37.088 205.463 37.096 205.303 37.096C204.887 37.096 204.551 36.976 204.295 36.736C204.055 36.48 203.911 36.176 203.863 35.824L203.815 34.936C203.255 35.688 202.543 36.264 201.679 36.664C200.831 37.048 199.919 37.24 198.943 37.24ZM199.495 35.656C200.247 35.656 200.943 35.52 201.583 35.248C202.239 34.96 202.735 34.584 203.071 34.12C203.375 33.816 203.527 33.504 203.527 33.184V31.336C202.503 30.936 201.439 30.736 200.335 30.736C199.279 30.736 198.415 30.96 197.743 31.408C197.087 31.856 196.759 32.44 196.759 33.16C196.759 33.512 196.823 33.84 196.951 34.144C197.095 34.448 197.287 34.712 197.527 34.936C197.783 35.16 198.079 35.336 198.415 35.464C198.751 35.592 199.111 35.656 199.495 35.656ZM209.065 19.48H211.177V33.76C211.177 34.224 211.297 34.592 211.537 34.864C211.793 35.12 212.145 35.248 212.593 35.248C212.769 35.248 212.977 35.224 213.217 35.176C213.457 35.112 213.681 35.04 213.889 34.96L214.225 36.664C213.873 36.808 213.457 36.928 212.977 37.024C212.497 37.12 212.073 37.168 211.705 37.168C210.889 37.168 210.241 36.936 209.761 36.472C209.297 36.008 209.065 35.36 209.065 34.528V19.48Z" fill="white"/>
</svg>
