<svg width="621" height="622" viewBox="0 0 621 622" fill="none" xmlns="http://www.w3.org/2000/svg">
<path fill-rule="evenodd" clip-rule="evenodd" d="M258.225 86.382C273.765 74.499 297.76 68.5572 330.21 68.5572C355.116 68.5572 397.104 77.4115 429.087 85.1619C451.102 90.4968 472.809 74.0238 472.809 51.3717C472.809 37.2851 464.148 24.6679 450.698 20.4793C424.068 12.1857 377.28 0 332.267 0C307.129 0 283.82 3.19933 262.339 9.59802C240.858 15.9967 222.118 25.5947 206.122 38.392C190.582 50.7323 178.242 66.2719 169.101 85.0109C159.96 103.293 155.389 124.317 155.389 148.083C155.389 167.279 158.36 183.733 164.302 197.445C170.701 210.699 179.842 222.353 191.725 232.409C203.608 242.464 218.462 251.147 236.287 258.46C254.569 265.316 275.822 271.944 300.045 278.342C321.069 283.827 339.808 289.083 356.262 294.11C372.716 299.137 386.655 304.851 398.082 311.249C409.508 317.191 418.192 324.275 424.133 332.502C430.532 340.729 433.731 351.013 433.731 363.353C433.731 383.92 425.505 399.46 409.051 409.972C392.597 420.484 369.288 425.74 339.123 425.74H161.902C142.782 425.74 127.281 441.24 127.281 460.361C127.281 479.482 142.782 494.982 161.902 494.982H337.751C362.432 494.982 385.513 492.468 406.994 487.441C428.475 481.957 447.215 473.73 463.211 462.761C479.665 451.334 492.462 436.709 501.603 418.884C511.201 401.059 516 379.807 516 355.126C516 333.188 512.115 314.677 504.345 299.595C497.032 284.055 486.52 271.029 472.809 260.517C459.098 250.005 442.187 241.093 422.077 233.78C402.423 226.467 380.257 219.84 355.576 213.898C335.466 208.871 317.87 204.3 302.787 200.187C287.705 195.616 275.136 190.589 265.081 185.104C255.026 179.162 247.484 172.536 242.457 165.223C237.886 157.453 235.601 147.626 235.601 135.743C235.601 114.719 243.143 98.265 258.225 86.382ZM135.851 460.704C135.851 473.935 146.615 484.699 159.846 484.699C173.077 484.699 183.841 473.935 183.841 460.704C183.841 447.473 173.077 436.709 159.846 436.709C146.615 436.709 135.851 447.473 135.851 460.704Z" fill="white"/>
<path d="M161.497 254.832C130.345 254.832 105 280.176 105 311.329C105 349.99 155.56 406.747 157.712 409.144C159.734 411.396 163.264 411.392 165.283 409.144C167.435 406.747 217.995 349.99 217.995 311.329C217.994 280.176 192.65 254.832 161.497 254.832ZM161.497 339.754C145.824 339.754 133.072 327.002 133.072 311.329C133.072 295.655 145.824 282.904 161.497 282.904C177.171 282.904 189.922 295.655 189.922 311.329C189.922 327.003 177.171 339.754 161.497 339.754Z" fill="white"/>
<path d="M83.136 599H72.576V570.872C72.576 566.2 71.808 562.776 70.272 560.6C68.736 558.424 66.496 557.336 63.552 557.336C60.544 557.336 57.792 558.456 55.296 560.696C52.864 562.872 51.104 565.72 50.016 569.24V599H39.456V570.872C39.456 566.136 38.688 562.712 37.152 560.6C35.616 558.424 33.408 557.336 30.528 557.336C27.52 557.336 24.768 558.424 22.272 560.6C19.776 562.776 17.984 565.624 16.896 569.144V599H6.336V548.792H15.936V558.872C17.92 555.352 20.512 552.664 23.712 550.808C26.976 548.888 30.688 547.928 34.848 547.928C39.008 547.928 42.272 549.016 44.64 551.192C47.072 553.368 48.576 556.088 49.152 559.352C51.264 555.64 53.92 552.824 57.12 550.904C60.32 548.92 63.968 547.928 68.064 547.928C71.008 547.928 73.44 548.504 75.36 549.656C77.344 550.744 78.912 552.216 80.064 554.072C81.216 555.928 82.016 558.104 82.464 560.6C82.912 563.032 83.136 565.624 83.136 568.376V599ZM95.9078 610.808C96.8678 611 97.7958 611.16 98.6918 611.288C99.6518 611.416 100.42 611.48 100.996 611.48C101.828 611.48 102.532 611.288 103.108 610.904C103.748 610.584 104.388 609.976 105.028 609.08C105.668 608.184 106.308 606.904 106.948 605.24C107.652 603.64 108.452 601.56 109.348 599L88.7078 548.792H99.5558L115.108 589.688L128.932 548.792H138.916L116.164 610.616C115.14 613.496 113.348 615.896 110.788 617.816C108.292 619.8 105.06 620.792 101.092 620.792C100.324 620.792 99.5238 620.728 98.6918 620.6C97.8598 620.536 96.9318 620.344 95.9078 620.024V610.808ZM163.795 599.96C159.763 599.96 155.731 599.32 151.699 598.04C147.731 596.696 144.307 594.808 141.427 592.376L145.651 585.656C148.659 587.832 151.635 589.496 154.579 590.648C157.523 591.736 160.531 592.28 163.603 592.28C166.739 592.28 169.203 591.672 170.995 590.456C172.851 589.24 173.779 587.512 173.779 585.272C173.779 583.16 172.755 581.624 170.707 580.664C168.659 579.704 165.459 578.648 161.107 577.496C157.971 576.664 155.283 575.864 153.043 575.096C150.803 574.328 148.979 573.432 147.571 572.408C146.163 571.384 145.139 570.2 144.499 568.856C143.859 567.512 143.539 565.88 143.539 563.96C143.539 561.4 144.019 559.128 144.979 557.144C146.003 555.16 147.379 553.496 149.107 552.152C150.899 550.744 152.979 549.688 155.347 548.984C157.715 548.28 160.275 547.928 163.027 547.928C166.803 547.928 170.323 548.504 173.587 549.656C176.851 550.808 179.763 552.472 182.323 554.648L177.811 560.984C173.139 557.272 168.179 555.416 162.931 555.416C160.243 555.416 157.971 555.992 156.115 557.144C154.323 558.232 153.427 559.992 153.427 562.424C153.427 563.448 153.619 564.312 154.003 565.016C154.387 565.72 154.995 566.328 155.827 566.84C156.723 567.352 157.843 567.832 159.187 568.28C160.595 568.664 162.323 569.112 164.371 569.624C167.763 570.456 170.675 571.288 173.107 572.12C175.603 572.952 177.651 573.944 179.251 575.096C180.851 576.184 182.035 577.496 182.803 579.032C183.571 580.504 183.955 582.296 183.955 584.408C183.955 589.208 182.131 593.016 178.483 595.832C174.899 598.584 170.003 599.96 163.795 599.96ZM221.692 599.96C217.66 599.96 214.108 599 211.036 597.08C207.964 595.16 205.532 592.664 203.74 589.592V619.448H193.18V548.792H202.492V557.816C204.412 554.808 206.876 552.408 209.884 550.616C212.956 548.824 216.412 547.928 220.252 547.928C223.708 547.928 226.876 548.632 229.756 550.04C232.636 551.448 235.132 553.336 237.244 555.704C239.356 558.072 240.988 560.824 242.14 563.96C243.356 567.096 243.964 570.392 243.964 573.848C243.964 577.496 243.42 580.92 242.332 584.12C241.244 587.256 239.708 590.008 237.724 592.376C235.74 594.68 233.372 596.536 230.62 597.944C227.932 599.288 224.956 599.96 221.692 599.96ZM218.236 590.936C220.476 590.936 222.492 590.456 224.284 589.496C226.14 588.536 227.708 587.256 228.988 585.656C230.332 584.056 231.356 582.232 232.06 580.184C232.764 578.136 233.116 576.024 233.116 573.848C233.116 571.544 232.7 569.368 231.868 567.32C231.1 565.272 230.012 563.48 228.604 561.944C227.26 560.408 225.628 559.192 223.708 558.296C221.788 557.4 219.708 556.952 217.468 556.952C216.124 556.952 214.716 557.208 213.244 557.72C211.772 558.232 210.396 558.936 209.116 559.832C207.836 560.728 206.716 561.784 205.756 563C204.796 564.152 204.124 565.432 203.74 566.84V579.992C204.38 581.528 205.212 582.968 206.236 584.312C207.26 585.656 208.38 586.808 209.596 587.768C210.876 588.728 212.252 589.496 213.724 590.072C215.196 590.648 216.7 590.936 218.236 590.936ZM276.021 599.96C272.053 599.96 268.469 599.256 265.269 597.848C262.133 596.44 259.445 594.552 257.205 592.184C254.965 589.816 253.237 587.064 252.021 583.928C250.805 580.728 250.197 577.4 250.197 573.944C250.197 570.488 250.805 567.192 252.021 564.056C253.237 560.856 254.965 558.072 257.205 555.704C259.509 553.336 262.229 551.448 265.365 550.04C268.565 548.632 272.117 547.928 276.021 547.928C279.925 547.928 283.445 548.632 286.581 550.04C289.781 551.448 292.501 553.336 294.741 555.704C297.045 558.072 298.805 560.856 300.021 564.056C301.237 567.192 301.845 570.488 301.845 573.944C301.845 577.4 301.237 580.728 300.021 583.928C298.805 587.064 297.045 589.816 294.741 592.184C292.501 594.552 289.781 596.44 286.581 597.848C283.445 599.256 279.925 599.96 276.021 599.96ZM261.045 574.04C261.045 576.472 261.429 578.712 262.197 580.76C262.965 582.808 264.021 584.6 265.365 586.136C266.709 587.608 268.277 588.792 270.069 589.688C271.925 590.52 273.909 590.936 276.021 590.936C278.133 590.936 280.085 590.52 281.877 589.688C283.733 588.792 285.333 587.576 286.677 586.04C288.021 584.504 289.077 582.712 289.845 580.664C290.613 578.616 290.997 576.376 290.997 573.944C290.997 571.576 290.613 569.368 289.845 567.32C289.077 565.208 288.021 563.384 286.677 561.848C285.333 560.312 283.733 559.128 281.877 558.296C280.085 557.4 278.133 556.952 276.021 556.952C273.973 556.952 272.021 557.4 270.165 558.296C268.373 559.192 266.805 560.408 265.461 561.944C264.117 563.48 263.029 565.304 262.197 567.416C261.429 569.464 261.045 571.672 261.045 574.04ZM338.491 596.408C337.147 597.048 335.291 597.784 332.923 598.616C330.555 599.384 328.027 599.768 325.339 599.768C323.675 599.768 322.107 599.544 320.635 599.096C319.163 598.648 317.851 597.976 316.699 597.08C315.611 596.184 314.747 595.032 314.107 593.624C313.467 592.152 313.147 590.392 313.147 588.344V556.952H306.523V548.792H313.147V532.28H323.707V548.792H334.651V556.952H323.707V584.984C323.835 586.776 324.379 588.088 325.339 588.92C326.363 589.688 327.611 590.072 329.083 590.072C330.555 590.072 331.963 589.816 333.307 589.304C334.651 588.792 335.643 588.376 336.283 588.056L338.491 596.408ZM345.325 599V586.712H354.061V599H345.325ZM384.29 599.96C380.258 599.96 376.29 599.352 372.386 598.136C368.482 596.856 365.122 595.032 362.306 592.664L365.954 587C368.898 589.24 371.842 590.936 374.786 592.088C377.73 593.176 380.834 593.72 384.098 593.72C387.746 593.72 390.626 593.016 392.738 591.608C394.914 590.136 396.002 588.088 396.002 585.464C396.002 584.248 395.714 583.224 395.138 582.392C394.562 581.496 393.698 580.728 392.546 580.088C391.394 579.448 389.922 578.872 388.13 578.36C386.338 577.848 384.258 577.304 381.89 576.728C378.882 575.96 376.29 575.224 374.114 574.52C371.938 573.816 370.146 572.984 368.738 572.024C367.33 571.064 366.306 569.912 365.666 568.568C365.026 567.224 364.706 565.56 364.706 563.576C364.706 561.08 365.186 558.872 366.146 556.952C367.17 554.968 368.546 553.336 370.274 552.056C372.002 550.712 374.018 549.72 376.322 549.08C378.69 548.376 381.218 548.024 383.906 548.024C387.682 548.024 391.202 548.632 394.466 549.848C397.73 551.064 400.482 552.664 402.722 554.648L398.882 559.736C396.77 557.88 394.402 556.504 391.778 555.608C389.154 554.648 386.466 554.168 383.714 554.168C380.642 554.168 378.018 554.84 375.842 556.184C373.73 557.464 372.674 559.544 372.674 562.424C372.674 563.576 372.866 564.536 373.25 565.304C373.698 566.072 374.402 566.744 375.362 567.32C376.322 567.896 377.538 568.408 379.01 568.856C380.546 569.304 382.37 569.784 384.482 570.296C387.81 571.064 390.69 571.864 393.122 572.696C395.618 573.464 397.666 574.392 399.266 575.48C400.93 576.568 402.146 577.848 402.914 579.32C403.746 580.792 404.162 582.584 404.162 584.696C404.162 589.368 402.37 593.08 398.786 595.832C395.202 598.584 390.37 599.96 384.29 599.96ZM436.048 599.96C432.272 599.96 428.816 599.256 425.68 597.848C422.608 596.44 419.952 594.552 417.712 592.184C415.536 589.816 413.84 587.064 412.624 583.928C411.408 580.792 410.8 577.496 410.8 574.04C410.8 570.52 411.408 567.192 412.624 564.056C413.904 560.92 415.632 558.168 417.808 555.8C420.048 553.432 422.704 551.544 425.776 550.136C428.912 548.728 432.336 548.024 436.048 548.024C439.76 548.024 443.184 548.728 446.32 550.136C449.456 551.544 452.112 553.432 454.288 555.8C456.528 558.168 458.256 560.92 459.472 564.056C460.752 567.192 461.392 570.52 461.392 574.04C461.392 577.496 460.784 580.792 459.568 583.928C458.352 587.064 456.624 589.816 454.384 592.184C452.144 594.552 449.456 596.44 446.32 597.848C443.248 599.256 439.824 599.96 436.048 599.96ZM419.44 574.136C419.44 576.76 419.856 579.192 420.688 581.432C421.584 583.672 422.768 585.624 424.24 587.288C425.776 588.952 427.536 590.264 429.52 591.224C431.568 592.184 433.744 592.664 436.048 592.664C438.352 592.664 440.496 592.184 442.48 591.224C444.528 590.264 446.32 588.952 447.856 587.288C449.392 585.56 450.576 583.576 451.408 581.336C452.304 579.032 452.752 576.568 452.752 573.944C452.752 571.384 452.304 568.984 451.408 566.744C450.576 564.44 449.392 562.456 447.856 560.792C446.32 559.064 444.528 557.72 442.48 556.76C440.496 555.8 438.352 555.32 436.048 555.32C433.744 555.32 431.568 555.832 429.52 556.856C427.536 557.816 425.776 559.16 424.24 560.888C422.768 562.552 421.584 564.536 420.688 566.84C419.856 569.08 419.44 571.512 419.44 574.136ZM468.269 573.848C468.269 570.328 468.877 567 470.093 563.864C471.309 560.728 473.037 558.008 475.277 555.704C477.517 553.336 480.173 551.48 483.245 550.136C486.381 548.728 489.869 548.024 493.709 548.024C498.701 548.024 502.989 549.144 506.573 551.384C510.221 553.56 512.973 556.504 514.829 560.216L506.573 562.808C505.293 560.44 503.501 558.616 501.197 557.336C498.893 555.992 496.333 555.32 493.517 555.32C491.213 555.32 489.037 555.8 486.989 556.76C484.941 557.656 483.181 558.936 481.709 560.6C480.237 562.264 479.053 564.216 478.157 566.456C477.325 568.696 476.909 571.16 476.909 573.848C476.909 576.472 477.357 578.936 478.253 581.24C479.149 583.544 480.333 585.56 481.805 587.288C483.341 588.952 485.101 590.264 487.085 591.224C489.133 592.184 491.309 592.664 493.613 592.664C495.085 592.664 496.525 592.472 497.933 592.088C499.405 591.64 500.717 591.064 501.869 590.36C503.085 589.656 504.141 588.856 505.037 587.96C505.933 587 506.573 585.976 506.957 584.888L515.213 587.384C514.445 589.24 513.357 590.936 511.949 592.472C510.605 594.008 509.005 595.32 507.149 596.408C505.293 597.496 503.213 598.36 500.909 599C498.669 599.64 496.301 599.96 493.805 599.96C490.029 599.96 486.573 599.256 483.437 597.848C480.301 596.44 477.613 594.552 475.373 592.184C473.133 589.816 471.373 587.064 470.093 583.928C468.877 580.728 468.269 577.368 468.269 573.848ZM524.785 599V548.888H533.233V599H524.785ZM524.785 539.48V528.92H533.233V539.48H524.785ZM559.774 599.96C557.406 599.96 555.198 599.576 553.15 598.808C551.102 597.976 549.31 596.856 547.774 595.448C546.302 594.04 545.118 592.408 544.222 590.552C543.39 588.632 542.974 586.552 542.974 584.312C542.974 582.008 543.486 579.928 544.51 578.072C545.534 576.152 546.974 574.52 548.83 573.176C550.75 571.832 552.99 570.776 555.55 570.008C558.174 569.24 561.022 568.856 564.094 568.856C566.526 568.856 568.99 569.08 571.486 569.528C573.982 569.976 576.19 570.584 578.11 571.352V567.32C578.11 563.224 576.958 560.024 574.654 557.72C572.35 555.352 569.086 554.168 564.862 554.168C559.806 554.168 554.494 556.12 548.926 560.024L546.142 554.552C552.606 550.2 559.102 548.024 565.63 548.024C572.222 548.024 577.342 549.784 580.99 553.304C584.702 556.824 586.558 561.784 586.558 568.184V588.632C586.558 590.616 587.454 591.64 589.246 591.704V599C588.35 599.128 587.614 599.224 587.038 599.288C586.462 599.352 585.854 599.384 585.214 599.384C583.55 599.384 582.206 598.904 581.182 597.944C580.222 596.92 579.646 595.704 579.454 594.296L579.262 590.744C577.022 593.752 574.174 596.056 570.718 597.656C567.326 599.192 563.678 599.96 559.774 599.96ZM561.982 593.624C564.99 593.624 567.774 593.08 570.334 591.992C572.958 590.84 574.942 589.336 576.286 587.48C577.502 586.264 578.11 585.016 578.11 583.736V576.344C574.014 574.744 569.758 573.944 565.342 573.944C561.118 573.944 557.662 574.84 554.974 576.632C552.35 578.424 551.038 580.76 551.038 583.64C551.038 585.048 551.294 586.36 551.806 587.576C552.382 588.792 553.15 589.848 554.11 590.744C555.134 591.64 556.318 592.344 557.662 592.856C559.006 593.368 560.446 593.624 561.982 593.624ZM600.258 528.92H608.706V586.04C608.706 587.896 609.186 589.368 610.146 590.456C611.17 591.48 612.578 591.992 614.37 591.992C615.074 591.992 615.906 591.896 616.866 591.704C617.826 591.448 618.722 591.16 619.554 590.84L620.898 597.656C619.49 598.232 617.826 598.712 615.906 599.096C613.986 599.48 612.29 599.672 610.818 599.672C607.554 599.672 604.962 598.744 603.042 596.888C601.186 595.032 600.258 592.44 600.258 589.112V528.92Z" fill="white"/>
</svg>
