<svg width="170" height="170" viewBox="0 0 170 170" fill="none" xmlns="http://www.w3.org/2000/svg">
<path d="M85.5 4C53.2429 4 27 30.3193 27 62.67C27 102.818 79.3518 161.758 81.5807 164.248C83.6743 166.586 87.3295 166.582 89.4193 164.248C91.6482 161.758 144 102.818 144 62.67C143.999 30.3193 117.757 4 85.5 4ZM85.5 92.1885C69.2707 92.1885 56.0675 78.9466 56.0675 62.67C56.0675 46.3934 69.271 33.1518 85.5 33.1518C101.729 33.1518 114.932 46.3937 114.932 62.6703C114.932 78.9469 101.729 92.1885 85.5 92.1885Z" fill="white" stroke="url(#paint0_linear)" stroke-width="8"/>
<defs>
<linearGradient id="paint0_linear" x1="85.5" y1="4" x2="85.5" y2="166" gradientUnits="userSpaceOnUse">
<stop stop-color="#764BA2"/>
<stop offset="1" stop-color="#667EEA"/>
</linearGradient>
</defs>
</svg>
